<?xml version="1.0" standalone="yes"?>
<svg xmlns="http://www.w3.org/2000/svg" width="1024" height="1024">
<path style="fill:#010101; stroke:none;" d="M0 0L0 1024L1024 1024L1024 0L0 0z"/>
<path style="fill:#606060; stroke:none;" d="M482 47L483 48L482 47z"/>
<path style="fill:#8d8d8d; stroke:none;" d="M483.667 47.3333L484.333 47.6667L483.667 47.3333z"/>
<path style="fill:#ffffff; stroke:none;" d="M485 47.4244C458.137 50.9515 431.562 52.5891 405 58.8843C327.446 77.265 256.029 115.762 197 169.17C155.217 206.974 120.904 253.699 95.7531 304C21.3312 452.844 33.5155 635.136 126.745 773C159.618 821.611 201.855 863.168 250 896.565C288.523 923.288 332.142 943.77 377 957.28C441.405 976.678 509.465 981.467 576 972.718C810.292 941.91 987.252 727.033 976.961 492C967.753 281.728 812.02 97.398 605 56C566.994 48.3998 523.748 42.3367 485 47.4244z"/>
<path style="fill:#8d8d8d; stroke:none;" d="M539.667 47.3333L540.333 47.6667L539.667 47.3333z"/>
<path style="fill:#606060; stroke:none;" d="M541 47L542 48L541 47M469 48L470 49L469 48z"/>
<path style="fill:#8d8d8d; stroke:none;" d="M470 48L471 49L470 48M553 48L554 49L553 48z"/>
<path style="fill:#606060; stroke:none;" d="M554 48L555 49L554 48M459 49L460 50L459 49z"/>
<path style="fill:#8d8d8d; stroke:none;" d="M460 49L461 50L460 49M563 49L564 50L563 49z"/>
<path style="fill:#606060; stroke:none;" d="M564 49L565 50L564 49z"/>
<path style="fill:#8d8d8d; stroke:none;" d="M451 50L452 51L451 50M572 50L573 51L572 50M444 51L445 52L444 51M579 51L580 52L579 51z"/>
<path style="fill:#606060; stroke:none;" d="M437 52L438 53L437 52M586 52L587 53L586 52M431 53L432 54L431 53M592 53L593 54L592 53z"/>
<path style="fill:#8d8d8d; stroke:none;" d="M426 54L427 55L426 54M597 54L598 55L597 54M421 55L422 56L421 55M602 55L603 56L602 55M416 56L417 57L416 56M607 56L608 57L607 56M411 57L412 58L411 57M612 57L613 58L612 57z"/>
<path style="fill:#606060; stroke:none;" d="M406 58L407 59L406 58M617 58L618 59L617 58M402 59L403 60L402 59M621 59L622 60L621 59M398 60L399 61L398 60M625 60L626 61L625 60M394 61L395 62L394 61M629 61L630 62L629 61z"/>
<path style="fill:#8d8d8d; stroke:none;" d="M387 63L388 64L387 63M636 63L637 64L636 63z"/>
<path style="fill:#606060; stroke:none;" d="M383 64L384 65L383 64M640 64L641 65L640 64z"/>
<path style="fill:#8d8d8d; stroke:none;" d="M380 65L381 66L380 65M643 65L644 66L643 65z"/>
<path style="fill:#606060; stroke:none;" d="M373 67L374 68L373 67M650 67L651 68L650 67z"/>
<path style="fill:#8d8d8d; stroke:none;" d="M370 68L371 69L370 68M653 68L654 69L653 68M367 69L368 70L367 69M656 69L657 70L656 69M364 70L365 71L364 70M659 70L660 71L659 70M361 71L362 72L361 71M662 71L663 72L662 71M358 72L359 73L358 72M665 72L666 73L665 72z"/>
<path style="fill:#606060; stroke:none;" d="M355 73L356 74L355 73M668 73L669 74L668 73z"/>
<path style="fill:#8d8d8d; stroke:none;" d="M350 75L351 76L350 75M673 75L674 76L673 75M347 76L348 77L347 76M676 76L677 77L676 76M342 78L343 79L342 78M681 78L682 79L681 78z"/>
<path style="fill:#606060; stroke:none;" d="M339 79L340 80L339 79M684 79L685 80L684 79z"/>
<path style="fill:#8d8d8d; stroke:none;" d="M337 80L338 81L337 80M686 80L687 81L686 80M332 82L333 83L332 82M691 82L692 83L691 82z"/>
<path style="fill:#606060; stroke:none;" d="M327 84L328 85L327 84M696 84L697 85L696 84z"/>
<path style="fill:#8d8d8d; stroke:none;" d="M325 85L326 86L325 85M698 85L699 86L698 85M323 86L324 87L323 86M700 86L701 87L700 86z"/>
<path style="fill:#606060; stroke:none;" d="M318 88L319 89L318 88M705 88L706 89L705 88M316 89L317 90L316 89M707 89L708 90L707 89z"/>
<path style="fill:#8d8d8d; stroke:none;" d="M314 90L315 91L314 90M709 90L710 91L709 90M312 91L313 92L312 91M711 91L712 92L711 91M310 92L311 93L310 92M713 92L714 93L713 92M308 93L309 94L308 93M715 93L716 94L715 93M306 94L307 95L306 94M717 94L718 95L717 94M304 95L305 96L304 95M719 95L720 96L719 95M302 96L303 97L302 96M721 96L722 97L721 96M300 97L301 98L300 97M723 97L724 98L723 97M298 98L299 99L298 98M725 98L726 99L725 98M296 99L297 100L296 99M727 99L728 100L727 99M294 100L295 101L294 100M729 100L730 101L729 100z"/>
<path style="fill:#606060; stroke:none;" d="M292 101L293 102L292 101M731 101L732 102L731 101M290 102L291 103L290 102M733 102L734 103L733 102z"/>
<path style="fill:#8d8d8d; stroke:none;" d="M285 105L286 106L285 105M738 105L739 106L738 105z"/>
<path style="fill:#606060; stroke:none;" d="M283 106L284 107L283 106M740 106L741 107L740 106z"/>
<path style="fill:#8d8d8d; stroke:none;" d="M278 109L279 110L278 109M745 109L746 110L745 109z"/>
<path style="fill:#606060; stroke:none;" d="M276 110L277 111L276 110M747 110L748 111L747 110z"/>
<path style="fill:#8d8d8d; stroke:none;" d="M273 112L274 113L273 112M750 112L751 113L750 112M271 113L272 114L271 113M752 113L753 114L752 113M268 115L269 116L268 115M755 115L756 116L755 115z"/>
<path style="fill:#606060; stroke:none;" d="M266 116L267 117L266 116M757 116L758 117L757 116M263 118L264 119L263 118M760 118L761 119L760 118z"/>
<path style="fill:#8d8d8d; stroke:none;" d="M260 120L261 121L260 120M763 120L764 121L763 120M257 122L258 123L257 122M766 122L767 123L766 122M254 124L255 125L254 124M769 124L770 125L769 124z"/>
<path style="fill:#606060; stroke:none;" d="M252 125L253 126L252 125M771 125L772 126L771 125z"/>
<path style="fill:#8d8d8d; stroke:none;" d="M248 128L249 129L248 128M775 128L776 129L775 128M245 130L246 131L245 130M778 130L779 131L778 130z"/>
<path style="fill:#606060; stroke:none;" d="M242 132L243 133L242 132M781 132L782 133L781 132z"/>
<path style="fill:#8d8d8d; stroke:none;" d="M241 133L242 134L241 133M782 133L783 134L782 133M238 135L239 136L238 135M785 135L786 136L785 135z"/>
<path style="fill:#606060; stroke:none;" d="M235 137L236 138L235 137M788 137L789 138L788 137z"/>
<path style="fill:#8d8d8d; stroke:none;" d="M234 138L235 139L234 138M789 138L790 139L789 138z"/>
<path style="fill:#606060; stroke:none;" d="M231 140L232 141L231 140M792 140L793 141L792 140z"/>
<path style="fill:#8d8d8d; stroke:none;" d="M230 141L231 142L230 141M793 141L794 142L793 141z"/>
<path style="fill:#606060; stroke:none;" d="M226 144L227 145L226 144M797 144L798 145L797 144z"/>
<path style="fill:#8d8d8d; stroke:none;" d="M225 145L226 146L225 145M798 145L799 146L798 145M221 148L222 149L221 148M802 148L803 149L802 148M220 149L221 150L220 149M803 149L804 150L803 149z"/>
<path style="fill:#606060; stroke:none;" d="M217 151L218 152L217 151M806 151L807 152L806 151z"/>
<path style="fill:#8d8d8d; stroke:none;" d="M216 152L217 153L216 152M807 152L808 153L807 152z"/>
<path style="fill:#606060; stroke:none;" d="M210 157L211 158L210 157M813 157L814 158L813 157z"/>
<path style="fill:#8d8d8d; stroke:none;" d="M209 158L210 159L209 158M814 158L815 159L814 158M208 159L209 160L208 159M815 159L816 160L815 159z"/>
<path style="fill:#606060; stroke:none;" d="M203 163L204 164L203 163M820 163L821 164L820 163z"/>
<path style="fill:#8d8d8d; stroke:none;" d="M202 164L203 165L202 164M821 164L822 165L821 164M201 165L202 166L201 165M822 165L823 166L822 165M200 166L201 167L200 166M823 166L824 167L823 166z"/>
<path style="fill:#606060; stroke:none;" d="M191 174L192 175L191 174M832 174L833 175L832 174M190 175L191 176L190 175M833 175L834 176L833 175M189 176L190 177L189 176M834 176L835 177L834 176M188 177L189 178L188 177M835 177L836 178L835 177z"/>
<path style="fill:#8d8d8d; stroke:none;" d="M187 178L188 179L187 178M836 178L837 179L836 178M186 179L187 180L186 179M837 179L838 180L837 179M185 180L186 181L185 180M838 180L839 181L838 180M184 181L185 182L184 181M839 181L840 182L839 181M183 182L184 183L183 182M840 182L841 183L840 182M182 183L183 184L182 183M841 183L842 184L841 183M181 184L182 185L181 184M842 184L843 185L842 184M180 185L181 186L180 185M843 185L844 186L843 185M179 186L180 187L179 186M844 186L845 187L844 186M178 187L179 188L178 187M845 187L846 188L845 187z"/>
<path style="fill:#606060; stroke:none;" d="M177 188L178 189L177 188M846 188L847 189L846 188M176 189L177 190L176 189M847 189L848 190L847 189M175 190L176 191L175 190M848 190L849 191L848 190z"/>
<path style="fill:#43a4f0; stroke:none;" d="M589 380L588 380C586.495 362.739 578.49 344.637 573.709 328C565.715 300.182 559.488 270.966 548.938 244C543.455 229.984 524.341 215.198 511.225 230.044C502.191 240.268 508.575 257.456 513.756 268C528.206 297.411 546.411 325.771 559 356C533.773 343.434 527.174 311.155 507 293.174C499.165 286.19 473.528 272.369 465.179 286.225C459.696 295.324 466.855 311.932 471.312 320C482.097 339.521 502.617 351.065 520 363.884C534.812 374.808 547.396 387.967 556.573 404C592.761 467.229 579.339 554.932 557.333 621C548.151 648.568 531.085 687.906 496 685.907C463.014 684.027 449.515 652.743 466.698 626C478.662 607.382 498.092 595.369 511.575 578C528.693 555.947 536.507 528.772 542.651 502C545.846 488.077 554.575 463.449 542.471 451.533C531.744 440.974 518.87 454.036 516.924 465C514.703 477.509 516.774 490.384 515.911 503C514.232 527.517 504.371 550.544 486.999 568C480.442 574.589 465.96 591.979 455.043 585.141C447.838 580.628 447.308 570.554 448.289 563C450.86 543.207 456.709 523.888 458.95 504C466.513 436.867 465.558 368.085 427.946 309C416.872 291.603 401.146 270.939 381 263.865C360.056 256.511 343.204 270.985 349.159 293C358.63 328.013 410.055 326.155 419.239 362C420.688 367.655 419.717 373.33 419 379C383.701 378.903 364.736 345.006 337 328.605C329.141 323.958 307.995 315.491 299.862 323.857C296.217 327.607 299.491 337.834 301.066 342C307.595 359.273 323.164 369.84 339 377.753C360.204 388.348 381.74 395.978 398.996 413.015C429.369 443 444.209 489.292 433.522 531C427.115 556.003 412.151 578.657 411.039 605C409.891 632.229 424.537 663.347 440 685C425.885 685 411.708 683.316 398 679.873C387.485 677.233 377.432 673.524 368 668.127C361.117 664.189 354.478 659.02 349.3 652.999C313.079 610.884 349.241 561.177 357.386 516C359.669 503.335 361.174 486.5 354.005 475.001C350.137 468.795 342.111 463.543 335.044 468.009C323.015 475.613 332.807 494.245 333.83 505C335.364 521.117 326.784 541.222 314 551C313.997 522.182 309.508 491.56 305.575 463C304.348 454.092 301.412 437.653 289.001 439.229C278.894 440.513 279 452.214 279 460L279 527C264.93 512.632 259.637 486.326 241 477C230.835 471.913 212.846 475.21 212.145 489C211.579 500.143 223.191 506.844 231 512.427C246.833 523.749 261.221 536.913 272.34 553C285.12 571.49 293.929 591.122 299.116 613C306.064 642.308 309.163 676.691 335 696.323C371.617 724.146 425.663 698.682 462 726.681C488.825 747.35 484.263 779.788 496.428 808C503.296 823.928 518.854 833.208 536 827.64C571.089 816.247 590.185 772.809 606.309 743C623.708 710.833 644.901 684.789 677 666.427C695.574 655.803 718.587 648.977 740 648.039C754.502 647.404 777.356 649.244 787.2 635.957C797.1 622.594 785.266 605.804 771 602.529C755.065 598.871 738.268 607.639 726 617C746.667 583.925 771.869 554.128 791.281 520C799.792 505.036 810.109 487.475 811.829 470C813.695 451.047 794.635 434.608 778.171 448.681C770.044 455.627 765.437 466.632 760.753 476C753.475 490.556 745.254 504.978 739 520L738 520C737.933 495.787 728.906 466.729 716.547 446C709.768 434.63 695.438 426.797 684.329 438.213C673.103 449.748 677.164 467.803 682.4 481C692.719 507.008 721.074 534.83 712.572 565C705.983 588.377 682.196 604.638 665 620.17C630.892 650.977 597.614 682.76 563 713C568.112 690.917 578.685 669.344 586.308 648C603.691 599.325 622.321 551.036 638.667 502C644.782 483.653 651.285 465.472 657.026 447C659.517 438.981 664.1 429.597 662.786 421C660.626 406.876 644.619 407.309 638.363 418.001C632.741 427.611 630.026 439.552 626.308 450C621.863 462.489 616.056 475.102 613 488C604.691 472.232 604 453.396 604 436C604 393.467 621.682 352.326 636.053 313C644.542 289.77 653.998 265.047 654 240C654.001 226.328 652.302 211.864 640.961 202.518C623.146 187.836 596.855 194.047 594.174 219C591.44 244.444 604.406 271.53 606.83 297C609.614 326.255 600.009 353.559 589 380z"/>
<path style="fill:#8d8d8d; stroke:none;" d="M166 200L167 201L166 200M857 200L858 201L857 200M165 201L166 202L165 201M858 201L859 202L858 201z"/>
<path style="fill:#606060; stroke:none;" d="M164 202L165 203L164 202M859 202L860 203L859 202M163 203L164 204L163 203M860 203L861 204L860 203z"/>
<path style="fill:#8d8d8d; stroke:none;" d="M159 208L160 209L159 208M864 208L865 209L864 208M158 209L159 210L158 209M865 209L866 210L865 209z"/>
<path style="fill:#606060; stroke:none;" d="M157 210L158 211L157 210M866 210L867 211L866 210z"/>
<path style="fill:#8d8d8d; stroke:none;" d="M153 215L154 216L153 215M870 215L871 216L870 215M152 216L153 217L152 216M871 216L872 217L871 216z"/>
<path style="fill:#606060; stroke:none;" d="M151 217L152 218L151 217M872 217L873 218L872 217z"/>
<path style="fill:#8d8d8d; stroke:none;" d="M149 220L150 221L149 220M874 220L875 221L874 220M148 221L149 222L148 221M875 221L876 222L875 221M145 225L146 226L145 225M878 225L879 226L878 225z"/>
<path style="fill:#606060; stroke:none;" d="M144 226L145 227L144 226M879 226L880 227L879 226z"/>
<path style="fill:#8d8d8d; stroke:none;" d="M142 229L143 230L142 229M881 229L882 230L881 229M141 230L142 231L141 230M882 230L883 231L882 230z"/>
<path style="fill:#606060; stroke:none;" d="M140 231L141 232L140 231M883 231L884 232L883 231z"/>
<path style="fill:#8d8d8d; stroke:none;" d="M138 234L139 235L138 234M885 234L886 235L885 234z"/>
<path style="fill:#606060; stroke:none;" d="M137 235L138 236L137 235M886 235L887 236L886 235z"/>
<path style="fill:#8d8d8d; stroke:none;" d="M136 237L137 238L136 237M887 237L888 238L887 237z"/>
<path style="fill:#606060; stroke:none;" d="M135 238L136 239L135 238M888 238L889 239L888 238z"/>
<path style="fill:#8d8d8d; stroke:none;" d="M133 241L134 242L133 241M890 241L891 242L890 241M131 244L132 245L131 244M892 244L893 245L892 244z"/>
<path style="fill:#606060; stroke:none;" d="M130 245L131 246L130 245M893 245L894 246L893 245z"/>
<path style="fill:#8d8d8d; stroke:none;" d="M128 248L129 249L128 248M895 248L896 249L895 248M126 251L127 252L126 251M897 251L898 252L897 251z"/>
<path style="fill:#606060; stroke:none;" d="M125 252L126 253L125 252M898 252L899 253L898 252z"/>
<path style="fill:#8d8d8d; stroke:none;" d="M124 254L125 255L124 254M899 254L900 255L899 254M122 257L123 258L122 257M901 257L902 258L901 257M120 260L121 261L120 260M903 260L904 261L903 260z"/>
<path style="fill:#606060; stroke:none;" d="M118 263L119 264L118 263M905 263L906 264L905 263z"/>
<path style="fill:#8d8d8d; stroke:none;" d="M117 265L118 266L117 265M906 265L907 266L906 265z"/>
<path style="fill:#606060; stroke:none;" d="M116 266L117 267L116 266M907 266L908 267L907 266z"/>
<path style="fill:#8d8d8d; stroke:none;" d="M115 268L116 269L115 268M908 268L909 269L908 268z"/>
<path style="fill:#606060; stroke:none;" d="M113 271L114 272L113 271M910 271L911 272L910 271z"/>
<path style="fill:#8d8d8d; stroke:none;" d="M112 273L113 274L112 273M911 273L912 274L911 273z"/>
<path style="fill:#606060; stroke:none;" d="M110 276L111 277L110 276M913 276L914 277L913 276z"/>
<path style="fill:#8d8d8d; stroke:none;" d="M109 278L110 279L109 278M914 278L915 279L914 278M108 280L109 281L108 280M915 280L916 281L915 280z"/>
<path style="fill:#606060; stroke:none;" d="M106 283L107 284L106 283M917 283L918 284L917 283z"/>
<path style="fill:#8d8d8d; stroke:none;" d="M105 285L106 286L105 285M918 285L919 286L918 285M104 287L105 288L104 287M919 287L920 288L919 287z"/>
<path style="fill:#606060; stroke:none;" d="M102 290L103 291L102 290M921 290L922 291L921 290M101 292L102 293L101 292M922 292L923 293L922 292M100 294L101 295L100 294M923 294L924 295L923 294M99 296L100 297L99 296M924 296L925 297L924 296M98 298L99 299L98 298M925 298L926 299L925 298z"/>
<path style="fill:#8d8d8d; stroke:none;" d="M97 300L98 301L97 300M926 300L927 301L926 300M96 302L97 303L96 302M927 302L928 303L927 302M95 304L96 305L95 304M928 304L929 305L928 304M94 306L95 307L94 306M929 306L930 307L929 306M93 308L94 309L93 308M930 308L931 309L930 308M92 310L93 311L92 310M931 310L932 311L931 310M91 312L92 313L91 312M932 312L933 313L932 312z"/>
<path style="fill:#606060; stroke:none;" d="M90 314L91 315L90 314M933 314L934 315L933 314M89 316L90 317L89 316M934 316L935 317L934 316z"/>
<path style="fill:#8d8d8d; stroke:none;" d="M87 321L88 322L87 321M936 321L937 322L936 321M86 323L87 324L86 323M937 323L938 324L937 323z"/>
<path style="fill:#606060; stroke:none;" d="M85 325L86 326L85 325M938 325L939 326L938 325z"/>
<path style="fill:#8d8d8d; stroke:none;" d="M83 330L84 331L83 330M940 330L941 331L940 330z"/>
<path style="fill:#606060; stroke:none;" d="M82 332L83 333L82 332M941 332L942 333L941 332z"/>
<path style="fill:#8d8d8d; stroke:none;" d="M81 335L82 336L81 335M942 335L943 336L942 335M80 337L81 338L80 337M943 337L944 338L943 337M78 342L79 343L78 342M945 342L946 343L945 342M77 345L78 346L77 345M946 345L947 346L946 345z"/>
<path style="fill:#606060; stroke:none;" d="M76 347L77 348L76 347M947 347L948 348L947 347z"/>
<path style="fill:#8d8d8d; stroke:none;" d="M75 350L76 351L75 350M948 350L949 351L948 350M74 353L75 354L74 353M949 353L950 354L949 353z"/>
<path style="fill:#606060; stroke:none;" d="M73 355L74 356L73 355M950 355L951 356L950 355z"/>
<path style="fill:#8d8d8d; stroke:none;" d="M73 356L74 357L73 356M950 356L951 357L950 356z"/>
<path style="fill:#606060; stroke:none;" d="M72 358L73 359L72 358M951 358L952 359L951 358M71 361L72 362L71 361M952 361L953 362L952 361M70 364L71 365L70 364M953 364L954 365L953 364M69 367L70 368L69 367M954 367L955 368L954 367M68 370L69 371L68 370M955 370L956 371L955 370M67 373L68 374L67 373M956 373L957 374L956 373z"/>
<path style="fill:#8d8d8d; stroke:none;" d="M67 374L68 375L67 374M956 374L957 375L956 374M66 377L67 378L66 377M957 377L958 378L957 377z"/>
<path style="fill:#606060; stroke:none;" d="M65 380L66 381L65 380M958 380L959 381L958 380M64 383L65 384L64 383M959 383L960 384L959 383z"/>
<path style="fill:#8d8d8d; stroke:none;" d="M64 384L65 385L64 384M959 384L960 385L959 384M63 387L64 388L63 387M960 387L961 388L960 387M62 391L63 392L62 391M961 391L962 392L961 391z"/>
<path style="fill:#606060; stroke:none;" d="M61 394L62 395L61 394M962 394L963 395L962 394z"/>
<path style="fill:#8d8d8d; stroke:none;" d="M61 395L62 396L61 395M962 395L963 396L962 395z"/>
<path style="fill:#606060; stroke:none;" d="M60 398L61 399L60 398M963 398L964 399L963 398z"/>
<path style="fill:#8d8d8d; stroke:none;" d="M60 399L61 400L60 399M963 399L964 400L963 399M59 403L60 404L59 403M964 403L965 404L964 403M58 407L59 408L58 407M965 407L966 408L965 407z"/>
<path style="fill:#606060; stroke:none;" d="M57 411L58 412L57 411M966 411L967 412L966 411z"/>
<path style="fill:#8d8d8d; stroke:none;" d="M57 412L58 413L57 412M966 412L967 413L966 412M56 416L57 417L56 416M967 416L968 417L967 416M55.3333 421.667L55.6667 422.333L55.3333 421.667M968.333 421.667L968.667 422.333L968.333 421.667M54.3333 426.667L54.6667 427.333L54.3333 426.667M969.333 426.667L969.667 427.333L969.333 426.667z"/>
<path style="fill:#606060; stroke:none;" d="M53 431L54 432L53 431M970 431L971 432L970 431z"/>
<path style="fill:#8d8d8d; stroke:none;" d="M53.3333 432.667L53.6667 433.333L53.3333 432.667M970.333 432.667L970.667 433.333L970.333 432.667z"/>
<path style="fill:#606060; stroke:none;" d="M52 437L53 438L52 437M971 437L972 438L971 437z"/>
<path style="fill:#8d8d8d; stroke:none;" d="M52.3333 438.667L52.6667 439.333L52.3333 438.667M971.333 438.667L971.667 439.333L971.333 438.667M787 443L788 444L787 443z"/>
<path style="fill:#606060; stroke:none;" d="M51 444L52 445L51 444M972 444L973 445L972 444z"/>
<path style="fill:#8d8d8d; stroke:none;" d="M51 445L52 446L51 445M972 445L973 446L972 445z"/>
<path style="fill:#606060; stroke:none;" d="M50 451L51 452L50 451M973 451L974 452L973 451z"/>
<path style="fill:#8d8d8d; stroke:none;" d="M50.3333 452.667L50.6667 453.333L50.3333 452.667M973.333 452.667L973.667 453.333L973.333 452.667M49 460L49 463L50 463L49 460M974 460L974 463L975 463L974 460M767 463L768 464L767 463z"/>
<path style="fill:#606060; stroke:none;" d="M48 469L49 470L48 469M975 469L976 470L975 469z"/>
<path style="fill:#8d8d8d; stroke:none;" d="M48 470L48 473L49 473L48 470M975 470L975 473L976 473L975 470z"/>
<path style="fill:#606060; stroke:none;" d="M47 483L48 484L47 483M976 483L977 484L976 483z"/>
<path style="fill:#8d8d8d; stroke:none;" d="M47 484L47 488L48 488L47 484M976 484L976 488L977 488L976 484M804 493L805 494L804 493M734 495L735 496L734 495M736 505L737 506L736 505M697 509L698 510L697 509M737 511L738 512L737 511M785 529L786 530L785 529M47 535L47 540L48 540L47 535M710 535L711 536L710 535M976 535L976 540L977 540L976 535z"/>
<path style="fill:#606060; stroke:none;" d="M47 540L48 541L47 540M976 540L977 541L976 540z"/>
<path style="fill:#8d8d8d; stroke:none;" d="M48 550L48 553L49 553L48 550M772 550L773 551L772 550M975 550L975 553L976 553L975 550z"/>
<path style="fill:#606060; stroke:none;" d="M48 553L49 554L48 553M975 553L976 554L975 553z"/>
<path style="fill:#8d8d8d; stroke:none;" d="M618 558L619 559L618 558M49.3333 561.667L49.6667 562.333L49.3333 561.667M974.333 561.667L974.667 562.333L974.333 561.667z"/>
<path style="fill:#606060; stroke:none;" d="M49 563L50 564L49 563M974 563L975 564L974 563z"/>
<path style="fill:#8d8d8d; stroke:none;" d="M50.3333 570.667L50.6667 571.333L50.3333 570.667M973.333 570.667L973.667 571.333L973.333 570.667z"/>
<path style="fill:#606060; stroke:none;" d="M50 572L51 573L50 572M973 572L974 573L973 572z"/>
<path style="fill:#8d8d8d; stroke:none;" d="M756 574L757 575L756 574M51.3333 577.667L51.6667 578.333L51.3333 577.667M707 577L708 578L707 577M972.333 577.667L972.667 578.333L972.333 577.667z"/>
<path style="fill:#606060; stroke:none;" d="M51 579L52 580L51 579M972 579L973 580L972 579z"/>
<path style="fill:#8d8d8d; stroke:none;" d="M52.3333 584.667L52.6667 585.333L52.3333 584.667M749 584L750 585L749 584M971.333 584.667L971.667 585.333L971.333 584.667M53.3333 590.667L53.6667 591.333L53.3333 590.667M970.333 590.667L970.667 591.333L970.333 590.667M696 591L697 592L696 591M695 592L696 593L695 592M54 596L55 597L54 596M969 596L970 597L969 596z"/>
<path style="fill:#606060; stroke:none;" d="M54 597L55 598L54 597M969 597L970 598L969 597z"/>
<path style="fill:#8d8d8d; stroke:none;" d="M55.3333 601.667L55.6667 602.333L55.3333 601.667M763.667 601.333L764.333 601.667L763.667 601.333M968.333 601.667L968.667 602.333L968.333 601.667M751 603L752 604L751 603M748 604L749 605L748 604M56.3333 606.667L56.6667 607.333L56.3333 606.667M967.333 606.667L967.667 607.333L967.333 606.667M679 607L680 608L679 607M782 608L783 609L782 608M783 609L784 610L783 609M57 611L58 612L57 611M729 611L730 612L729 611M734 611L735 612L734 611M966 611L967 612L966 611z"/>
<path style="fill:#606060; stroke:none;" d="M57 612L58 613L57 612M966 612L967 613L966 612z"/>
<path style="fill:#8d8d8d; stroke:none;" d="M58.3333 615.667L58.6667 616.333L58.3333 615.667M965.333 615.667L965.667 616.333L965.333 615.667M59 620L60 621L59 620M964 620L965 621L964 620M60 624L61 625L60 624M963 624L964 625L963 624M61 628L62 629L61 628M962 628L963 629L962 628M62 632L63 633L62 632M961 632L962 633L961 632M63 635L64 636L63 635M960 635L961 636L960 635z"/>
<path style="fill:#606060; stroke:none;" d="M63 636L64 637L63 636M960 636L961 637L960 636z"/>
<path style="fill:#8d8d8d; stroke:none;" d="M64 639L65 640L64 639M959 639L960 640L959 639M780 641L781 642L780 641M65 642L66 643L65 642M778 642L779 643L778 642M958 642L959 643L958 642z"/>
<path style="fill:#606060; stroke:none;" d="M65 643L66 644L65 643M958 643L959 644L958 643z"/>
<path style="fill:#8d8d8d; stroke:none;" d="M66 646L67 647L66 646M764 646L765 647L764 646M957 646L958 647L957 646M754 647L755 648L754 647M634 648L635 649L634 648M735 648L736 649L735 648M67 649L68 650L67 649M956 649L957 650L956 649z"/>
<path style="fill:#606060; stroke:none;" d="M67 650L68 651L67 650M956 650L957 651L956 650z"/>
<path style="fill:#8d8d8d; stroke:none;" d="M716 651L717 652L716 651M68 652L69 653L68 652M955 652L956 653L955 652z"/>
<path style="fill:#606060; stroke:none;" d="M68 653L69 654L68 653z"/>
<path style="fill:#8d8d8d; stroke:none;" d="M708 653L709 654L708 653z"/>
<path style="fill:#606060; stroke:none;" d="M955 653L956 654L955 653z"/>
<path style="fill:#8d8d8d; stroke:none;" d="M69 655L70 656L69 655M954 655L955 656L954 655z"/>
<path style="fill:#606060; stroke:none;" d="M69 656L70 657L69 656M954 656L955 657L954 656z"/>
<path style="fill:#8d8d8d; stroke:none;" d="M70 658L71 659L70 658M953 658L954 659L953 658z"/>
<path style="fill:#606060; stroke:none;" d="M70 659L71 660L70 659M953 659L954 660L953 659z"/>
<path style="fill:#8d8d8d; stroke:none;" d="M581 660L582 661L581 660M71 661L72 662L71 661M686 661L687 662L686 661M952 661L953 662L952 661z"/>
<path style="fill:#606060; stroke:none;" d="M71 662L72 663L71 662M952 662L953 663L952 662z"/>
<path style="fill:#8d8d8d; stroke:none;" d="M72 664L73 665L72 664M951 664L952 665L951 664z"/>
<path style="fill:#606060; stroke:none;" d="M72 665L73 666L72 665M951 665L952 666L951 665z"/>
<path style="fill:#8d8d8d; stroke:none;" d="M676 666L677 667L676 666M73 667L74 668L73 667M950 667L951 668L950 667M74 670L75 671L74 670M949 670L950 671L949 670M577 671L578 672L577 671z"/>
<path style="fill:#606060; stroke:none;" d="M75 673L76 674L75 673M948 673L949 674L948 673z"/>
<path style="fill:#8d8d8d; stroke:none;" d="M76 675L77 676L76 675M947 675L948 676L947 675z"/>
<path style="fill:#606060; stroke:none;" d="M76 676L77 677L76 676M947 676L948 677L947 676z"/>
<path style="fill:#8d8d8d; stroke:none;" d="M77 678L78 679L77 678M946 678L947 679L946 678M600 679L601 680L600 679z"/>
<path style="fill:#606060; stroke:none;" d="M78 681L79 682L78 681M945 681L946 682L945 681z"/>
<path style="fill:#8d8d8d; stroke:none;" d="M79 683L80 684L79 683M944 683L945 684L944 683z"/>
<path style="fill:#606060; stroke:none;" d="M80 686L81 687L80 686M943 686L944 687L943 686z"/>
<path style="fill:#8d8d8d; stroke:none;" d="M81 688L82 689L81 688M645 688L646 689L645 688M942 688L943 689L942 688M589 689L590 690L589 689z"/>
<path style="fill:#606060; stroke:none;" d="M82 691L83 692L82 691M941 691L942 692L941 691z"/>
<path style="fill:#8d8d8d; stroke:none;" d="M83 693L84 694L83 693M940 693L941 694L940 693M84 695L85 696L84 695M939 695L940 696L939 695M636 697L637 698L636 697z"/>
<path style="fill:#606060; stroke:none;" d="M85 698L86 699L85 698M938 698L939 699L938 698z"/>
<path style="fill:#8d8d8d; stroke:none;" d="M86 700L87 701L86 700M937 700L938 701L937 700M87 702L88 703L87 702M936 702L937 703L936 702M88 704L89 705L88 704M935 704L936 705L935 704M89 706L90 707L89 706M934 706L935 707L934 706z"/>
<path style="fill:#606060; stroke:none;" d="M90 709L91 710L90 709M933 709L934 710L933 709M91 711L92 712L91 711M932 711L933 712L932 711z"/>
<path style="fill:#8d8d8d; stroke:none;" d="M92 713L93 714L92 713z"/>
<path style="fill:#ffffff; stroke:none;" d="M562 713L563 714L562 713z"/>
<path style="fill:#8d8d8d; stroke:none;" d="M931 713L932 714L931 713z"/>
<path style="fill:#606060; stroke:none;" d="M93 715L94 716L93 715M930 715L931 716L930 715M94 717L95 718L94 717M929 717L930 718L929 717M95 719L96 720L95 719M928 719L929 720L928 719M96 721L97 722L96 721M927 721L928 722L927 721M97 723L98 724L97 723M926 723L927 724L926 723z"/>
<path style="fill:#8d8d8d; stroke:none;" d="M459 724L460 725L459 724z"/>
<path style="fill:#606060; stroke:none;" d="M98 725L99 726L98 725M925 725L926 726L925 725M99 727L100 728L99 727M924 727L925 728L924 727M100 729L101 730L100 729M923 729L924 730L923 729z"/>
<path style="fill:#8d8d8d; stroke:none;" d="M102 732L103 733L102 732M921 732L922 733L921 732M103 734L104 735L103 734M920 734L921 735L920 734M104 736L105 737L104 736M919 736L920 737L919 736z"/>
<path style="fill:#606060; stroke:none;" d="M105 738L106 739L105 738M918 738L919 739L918 738z"/>
<path style="fill:#8d8d8d; stroke:none;" d="M607 740L608 741L607 740M107 741L108 742L107 741M916 741L917 742L916 741M108 743L109 744L108 743M915 743L916 744L915 743z"/>
<path style="fill:#606060; stroke:none;" d="M109 745L110 746L109 745M914 745L915 746L914 745z"/>
<path style="fill:#8d8d8d; stroke:none;" d="M111 748L112 749L111 748M912 748L913 749L912 748M112 750L113 751L112 750M911 750L912 751L911 750z"/>
<path style="fill:#606060; stroke:none;" d="M113 752L114 753L113 752M910 752L911 753L910 752z"/>
<path style="fill:#8d8d8d; stroke:none;" d="M114 753L115 754L114 753M909 753L910 754L909 753z"/>
<path style="fill:#606060; stroke:none;" d="M115 755L116 756L115 755M908 755L909 756L908 755z"/>
<path style="fill:#8d8d8d; stroke:none;" d="M117 758L118 759L117 758M906 758L907 759L906 758M484 760L485 761L484 760M119 761L120 762L119 761M904 761L905 762L904 761z"/>
<path style="fill:#606060; stroke:none;" d="M120 763L121 764L120 763M903 763L904 764L903 763z"/>
<path style="fill:#8d8d8d; stroke:none;" d="M121 764L122 765L121 764M902 764L903 765L902 764z"/>
<path style="fill:#606060; stroke:none;" d="M122 766L123 767L122 766M901 766L902 767L901 766z"/>
<path style="fill:#8d8d8d; stroke:none;" d="M123 767L124 768L123 767M900 767L901 768L900 767M124 769L125 770L124 769M486 769L487 770L486 769M899 769L900 770L899 769M126 772L127 773L126 772M897 772L898 773L897 772M487 774L488 775L487 774z"/>
<path style="fill:#606060; stroke:none;" d="M128 775L129 776L128 775M895 775L896 776L895 775z"/>
<path style="fill:#8d8d8d; stroke:none;" d="M129 776L130 777L129 776M894 776L895 777L894 776z"/>
<path style="fill:#606060; stroke:none;" d="M130 778L131 779L130 778M893 778L894 779L893 778z"/>
<path style="fill:#8d8d8d; stroke:none;" d="M131 779L132 780L131 779M488 779L489 780L488 779M892 779L893 780L892 779z"/>
<path style="fill:#606060; stroke:none;" d="M133 782L134 783L133 782M890 782L891 783L890 782z"/>
<path style="fill:#8d8d8d; stroke:none;" d="M134 783L135 784L134 783M889 783L890 784L889 783z"/>
<path style="fill:#606060; stroke:none;" d="M135 785L136 786L135 785M888 785L889 786L888 785z"/>
<path style="fill:#8d8d8d; stroke:none;" d="M136 786L137 787L136 786M887 786L888 787L887 786z"/>
<path style="fill:#606060; stroke:none;" d="M138 789L139 790L138 789M885 789L886 790L885 789z"/>
<path style="fill:#8d8d8d; stroke:none;" d="M139 790L140 791L139 790M884 790L885 791L884 790z"/>
<path style="fill:#606060; stroke:none;" d="M141 793L142 794L141 793M882 793L883 794L882 793z"/>
<path style="fill:#8d8d8d; stroke:none;" d="M142 794L143 795L142 794M881 794L882 795L881 794M143 795L144 796L143 795M574 795L575 796L574 795M880 795L881 796L880 795M492 796L493 797L492 796z"/>
<path style="fill:#606060; stroke:none;" d="M145 798L146 799L145 798M878 798L879 799L878 798z"/>
<path style="fill:#8d8d8d; stroke:none;" d="M146 799L147 800L146 799M877 799L878 800L877 799z"/>
<path style="fill:#606060; stroke:none;" d="M148 802L149 803L148 802M875 802L876 803L875 802z"/>
<path style="fill:#8d8d8d; stroke:none;" d="M149 803L150 804L149 803M874 803L875 804L874 803M150 804L151 805L150 804M873 804L874 805L873 804z"/>
<path style="fill:#606060; stroke:none;" d="M152 807L153 808L152 807M871 807L872 808L871 807z"/>
<path style="fill:#8d8d8d; stroke:none;" d="M153 808L154 809L153 808M870 808L871 809L870 808M154 809L155 810L154 809M869 809L870 810L869 809M155 810L156 811L155 810M868 810L869 811L868 810z"/>
<path style="fill:#606060; stroke:none;" d="M158 814L159 815L158 814M865 814L866 815L865 814M159 815L160 816L159 815M864 815L865 816L864 815z"/>
<path style="fill:#8d8d8d; stroke:none;" d="M160 816L161 817L160 816M554 816L555 817L554 816M863 816L864 817L863 816M161 817L162 818L161 817M862 817L863 818L862 817z"/>
<path style="fill:#606060; stroke:none;" d="M164 821L165 822L164 821z"/>
<path style="fill:#8d8d8d; stroke:none;" d="M505 821L506 822L505 821z"/>
<path style="fill:#606060; stroke:none;" d="M859 821L860 822L859 821M165 822L166 823L165 822M858 822L859 823L858 822z"/>
<path style="fill:#8d8d8d; stroke:none;" d="M166 823L167 824L166 823M857 823L858 824L857 823M167 824L168 825L167 824M856 824L857 825L856 824M168 825L169 826L168 825M855 825L856 826L855 825M169 826L170 827L169 826M854 826L855 827L854 826M170 827L171 828L170 827M853 827L854 828L853 827M523 829L523 830L527 830L523 829z"/>
<path style="fill:#606060; stroke:none;" d="M178 836L179 837L178 836M845 836L846 837L845 836M179 837L180 838L179 837M844 837L845 838L844 837M180 838L181 839L180 838M843 838L844 839L843 838M181 839L182 840L181 839M842 839L843 840L842 839M182 840L183 841L182 840M841 840L842 841L841 840M183 841L184 842L183 841M840 841L841 842L840 841M184 842L185 843L184 842M839 842L840 843L839 842M185 843L186 844L185 843M838 843L839 844L838 843M186 844L187 845L186 844M837 844L838 845L837 844M187 845L188 846L187 845M836 845L837 846L836 845z"/>
<path style="fill:#8d8d8d; stroke:none;" d="M196 853L197 854L196 853M827 853L828 854L827 853M197 854L198 855L197 854M826 854L827 855L826 854M198 855L199 856L198 855M825 855L826 856L825 855M199 856L200 857L199 856M824 856L825 857L824 856M200 857L201 858L200 857M823 857L824 858L823 857z"/>
<path style="fill:#606060; stroke:none;" d="M201 858L202 859L201 858M822 858L823 859L822 858M202 859L203 860L202 859M821 859L822 860L821 859z"/>
<path style="fill:#8d8d8d; stroke:none;" d="M206 862L207 863L206 862M817 862L818 863L817 862M207 863L208 864L207 863M816 863L817 864L816 863z"/>
<path style="fill:#606060; stroke:none;" d="M208 864L209 865L208 864M815 864L816 865L815 864M209 865L210 866L209 865M814 865L815 866L814 865z"/>
<path style="fill:#8d8d8d; stroke:none;" d="M213 868L214 869L213 868M810 868L811 869L810 868M214 869L215 870L214 869M809 869L810 870L809 869M215 870L216 871L215 870M808 870L809 871L808 870z"/>
<path style="fill:#606060; stroke:none;" d="M216 871L217 872L216 871M807 871L808 872L807 871z"/>
<path style="fill:#8d8d8d; stroke:none;" d="M219 873L220 874L219 873M804 873L805 874L804 873M220 874L221 875L220 874M803 874L804 875L803 874z"/>
<path style="fill:#606060; stroke:none;" d="M221 875L222 876L221 875M802 875L803 876L802 875z"/>
<path style="fill:#8d8d8d; stroke:none;" d="M224 877L225 878L224 877M799 877L800 878L799 877z"/>
<path style="fill:#606060; stroke:none;" d="M225 878L226 879L225 878M798 878L799 879L798 878z"/>
<path style="fill:#8d8d8d; stroke:none;" d="M228 880L229 881L228 880M795 880L796 881L795 880M229 881L230 882L229 881M794 881L795 882L794 881z"/>
<path style="fill:#606060; stroke:none;" d="M230 882L231 883L230 882M793 882L794 883L793 882z"/>
<path style="fill:#8d8d8d; stroke:none;" d="M233 884L234 885L233 884M790 884L791 885L790 884z"/>
<path style="fill:#606060; stroke:none;" d="M234 885L235 886L234 885M789 885L790 886L789 885z"/>
<path style="fill:#8d8d8d; stroke:none;" d="M237 887L238 888L237 887M786 887L787 888L786 887z"/>
<path style="fill:#606060; stroke:none;" d="M238 888L239 889L238 888M785 888L786 889L785 888z"/>
<path style="fill:#8d8d8d; stroke:none;" d="M240 889L241 890L240 889M783 889L784 890L783 889z"/>
<path style="fill:#606060; stroke:none;" d="M241 890L242 891L241 890M782 890L783 891L782 890z"/>
<path style="fill:#8d8d8d; stroke:none;" d="M244 892L245 893L244 892M779 892L780 893L779 892z"/>
<path style="fill:#606060; stroke:none;" d="M245 893L246 894L245 893M778 893L779 894L778 893z"/>
<path style="fill:#8d8d8d; stroke:none;" d="M247 894L248 895L247 894M776 894L777 895L776 894z"/>
<path style="fill:#606060; stroke:none;" d="M248 895L249 896L248 895M775 895L776 896L775 895z"/>
<path style="fill:#8d8d8d; stroke:none;" d="M251 897L252 898L251 897M772 897L773 898L772 897z"/>
<path style="fill:#606060; stroke:none;" d="M254 899L255 900L254 899M769 899L770 900L769 899z"/>
<path style="fill:#8d8d8d; stroke:none;" d="M256 900L257 901L256 900M767 900L768 901L767 900z"/>
<path style="fill:#606060; stroke:none;" d="M257 901L258 902L257 901M766 901L767 902L766 901z"/>
<path style="fill:#8d8d8d; stroke:none;" d="M259 902L260 903L259 902M764 902L765 903L764 902z"/>
<path style="fill:#606060; stroke:none;" d="M260 903L261 904L260 903M763 903L764 904L763 903z"/>
<path style="fill:#8d8d8d; stroke:none;" d="M262 904L263 905L262 904M761 904L762 905L761 904M265 906L266 907L265 906M758 906L759 907L758 906z"/>
<path style="fill:#606060; stroke:none;" d="M268 908L269 909L268 908M755 908L756 909L755 908z"/>
<path style="fill:#8d8d8d; stroke:none;" d="M270 909L271 910L270 909M753 909L754 910L753 909z"/>
<path style="fill:#606060; stroke:none;" d="M271 910L272 911L271 910M752 910L753 911L752 910M273 911L274 912L273 911M750 911L751 912L750 911z"/>
<path style="fill:#8d8d8d; stroke:none;" d="M275 912L276 913L275 912M748 912L749 913L748 912M277 913L278 914L277 913M746 913L747 914L746 913z"/>
<path style="fill:#606060; stroke:none;" d="M278 914L279 915L278 914M745 914L746 915L745 914z"/>
<path style="fill:#8d8d8d; stroke:none;" d="M280 915L281 916L280 915M743 915L744 916L743 915M282 916L283 917L282 916M741 916L742 917L741 916z"/>
<path style="fill:#606060; stroke:none;" d="M285 918L286 919L285 918M738 918L739 919L738 918z"/>
<path style="fill:#8d8d8d; stroke:none;" d="M287 919L288 920L287 919M736 919L737 920L736 919M289 920L290 921L289 920M734 920L735 921L734 920M291 921L292 922L291 921M732 921L733 922L732 921M293 922L294 923L293 922M730 922L731 923L730 922z"/>
<path style="fill:#606060; stroke:none;" d="M296 924L297 925L296 924M727 924L728 925L727 924M298 925L299 926L298 925M725 925L726 926L725 925M300 926L301 927L300 926M723 926L724 927L723 926M302 927L303 928L302 927M721 927L722 928L721 927M304 928L305 929L304 928M719 928L720 929L719 928M306 929L307 930L306 929M717 929L718 930L717 929M308 930L309 931L308 930M715 930L716 931L715 930M310 931L311 932L310 931M713 931L714 932L713 931M312 932L313 933L312 932M711 932L712 933L711 932M314 933L315 934L314 933M709 933L710 934L709 933z"/>
<path style="fill:#8d8d8d; stroke:none;" d="M317 934L318 935L317 934M706 934L707 935L706 934M319 935L320 936L319 935M704 935L705 936L704 935M321 936L322 937L321 936M702 936L703 937L702 936z"/>
<path style="fill:#606060; stroke:none;" d="M323 937L324 938L323 937M700 937L701 938L700 937M325 938L326 939L325 938z"/>
<path style="fill:#8d8d8d; stroke:none;" d="M326 938L327 939L326 938M697 938L698 939L697 938z"/>
<path style="fill:#606060; stroke:none;" d="M698 938L699 939L698 938z"/>
<path style="fill:#8d8d8d; stroke:none;" d="M328 939L329 940L328 939M695 939L696 940L695 939M330 940L331 941L330 940M693 940L694 941L693 940z"/>
<path style="fill:#606060; stroke:none;" d="M332 941L333 942L332 941z"/>
<path style="fill:#8d8d8d; stroke:none;" d="M333 941L334 942L333 941M690 941L691 942L690 941z"/>
<path style="fill:#606060; stroke:none;" d="M691 941L692 942L691 941z"/>
<path style="fill:#8d8d8d; stroke:none;" d="M335 942L336 943L335 942M688 942L689 943L688 942z"/>
<path style="fill:#606060; stroke:none;" d="M337 943L338 944L337 943M686 943L687 944L686 943z"/>
<path style="fill:#8d8d8d; stroke:none;" d="M340 944L341 945L340 944M683 944L684 945L683 944z"/>
<path style="fill:#606060; stroke:none;" d="M342 945L343 946L342 945z"/>
<path style="fill:#8d8d8d; stroke:none;" d="M343 945L344 946L343 945M680 945L681 946L680 945z"/>
<path style="fill:#606060; stroke:none;" d="M681 945L682 946L681 945z"/>
<path style="fill:#8d8d8d; stroke:none;" d="M345 946L346 947L345 946M678 946L679 947L678 946M348 947L349 948L348 947M675 947L676 948L675 947z"/>
<path style="fill:#606060; stroke:none;" d="M350 948L351 949L350 948M673 948L674 949L673 948z"/>
<path style="fill:#8d8d8d; stroke:none;" d="M353 949L354 950L353 949M670 949L671 950L670 949M356 950L357 951L356 950M667 950L668 951L667 950M359 951L360 952L359 951M664 951L665 952L664 951z"/>
<path style="fill:#606060; stroke:none;" d="M361 952L362 953L361 952z"/>
<path style="fill:#8d8d8d; stroke:none;" d="M362 952L363 953L362 952M661 952L662 953L661 952z"/>
<path style="fill:#606060; stroke:none;" d="M662 952L663 953L662 952M364 953L365 954L364 953z"/>
<path style="fill:#8d8d8d; stroke:none;" d="M365 953L366 954L365 953M658 953L659 954L658 953z"/>
<path style="fill:#606060; stroke:none;" d="M659 953L660 954L659 953M367 954L368 955L367 954z"/>
<path style="fill:#8d8d8d; stroke:none;" d="M368 954L369 955L368 954M655 954L656 955L655 954z"/>
<path style="fill:#606060; stroke:none;" d="M656 954L657 955L656 954M370 955L371 956L370 955z"/>
<path style="fill:#8d8d8d; stroke:none;" d="M371 955L372 956L371 955M652 955L653 956L652 955z"/>
<path style="fill:#606060; stroke:none;" d="M653 955L654 956L653 955z"/>
<path style="fill:#8d8d8d; stroke:none;" d="M374 956L375 957L374 956M649 956L650 957L649 956M377 957L378 958L377 957M646 957L647 958L646 957z"/>
<path style="fill:#606060; stroke:none;" d="M380 958L381 959L380 958z"/>
<path style="fill:#8d8d8d; stroke:none;" d="M381 958L382 959L381 958M642 958L643 959L642 958z"/>
<path style="fill:#606060; stroke:none;" d="M643 958L644 959L643 958z"/>
<path style="fill:#8d8d8d; stroke:none;" d="M384 959L385 960L384 959M639 959L640 960L639 959z"/>
<path style="fill:#606060; stroke:none;" d="M387 960L388 961L387 960z"/>
<path style="fill:#8d8d8d; stroke:none;" d="M388 960L389 961L388 960M635 960L636 961L635 960z"/>
<path style="fill:#606060; stroke:none;" d="M636 960L637 961L636 960M391 961L392 962L391 961z"/>
<path style="fill:#8d8d8d; stroke:none;" d="M392 961L393 962L392 961M631 961L632 962L631 961z"/>
<path style="fill:#606060; stroke:none;" d="M632 961L633 962L632 961z"/>
<path style="fill:#8d8d8d; stroke:none;" d="M395 962L396 963L395 962M628 962L629 963L628 962M399.667 963.333L400.333 963.667L399.667 963.333M623.667 963.333L624.333 963.667L623.667 963.333M403.667 964.333L404.333 964.667L403.667 964.333M619.667 964.333L620.333 964.667L619.667 964.333z"/>
<path style="fill:#606060; stroke:none;" d="M407 965L408 966L407 965z"/>
<path style="fill:#8d8d8d; stroke:none;" d="M408 965L409 966L408 965M615 965L616 966L615 965z"/>
<path style="fill:#606060; stroke:none;" d="M616 965L617 966L616 965M411 966L412 967L411 966z"/>
<path style="fill:#8d8d8d; stroke:none;" d="M412.667 966.333L413.333 966.667L412.667 966.333M610.667 966.333L611.333 966.667L610.667 966.333z"/>
<path style="fill:#606060; stroke:none;" d="M612 966L613 967L612 966M416 967L417 968L416 967z"/>
<path style="fill:#8d8d8d; stroke:none;" d="M417 967L418 968L417 967M606 967L607 968L606 967z"/>
<path style="fill:#606060; stroke:none;" d="M607 967L608 968L607 967M421 968L422 969L421 968z"/>
<path style="fill:#8d8d8d; stroke:none;" d="M422 968L423 969L422 968M601 968L602 969L601 968z"/>
<path style="fill:#606060; stroke:none;" d="M602 968L603 969L602 968M426 969L427 970L426 969z"/>
<path style="fill:#8d8d8d; stroke:none;" d="M427.667 969.333L428.333 969.667L427.667 969.333M595.667 969.333L596.333 969.667L595.667 969.333z"/>
<path style="fill:#606060; stroke:none;" d="M597 969L598 970L597 969M432 970L433 971L432 970z"/>
<path style="fill:#8d8d8d; stroke:none;" d="M433 970L434 971L433 970M590 970L591 971L590 970z"/>
<path style="fill:#606060; stroke:none;" d="M591 970L592 971L591 970M438 971L439 972L438 971z"/>
<path style="fill:#8d8d8d; stroke:none;" d="M439 971L440 972L439 971M584 971L585 972L584 971z"/>
<path style="fill:#606060; stroke:none;" d="M585 971L586 972L585 971M444 972L445 973L444 972z"/>
<path style="fill:#8d8d8d; stroke:none;" d="M445.667 972.333L446.333 972.667L445.667 972.333M577.667 972.333L578.333 972.667L577.667 972.333z"/>
<path style="fill:#606060; stroke:none;" d="M579 972L580 973L579 972M451 973L452 974L451 973z"/>
<path style="fill:#8d8d8d; stroke:none;" d="M452 973L452 974L455 974L452 973M569 973L569 974L572 974L569 973z"/>
<path style="fill:#606060; stroke:none;" d="M572 973L573 974L572 973M460 974L461 975L460 974z"/>
<path style="fill:#8d8d8d; stroke:none;" d="M461 974L461 975L464 975L461 974M560 974L560 975L563 975L560 974z"/>
<path style="fill:#606060; stroke:none;" d="M563 974L564 975L563 974M470 975L471 976L470 975z"/>
<path style="fill:#8d8d8d; stroke:none;" d="M471 975L471 976L475 976L471 975M549 975L549 976L553 976L549 975z"/>
<path style="fill:#606060; stroke:none;" d="M553 975L554 976L553 975M483.667 976.333L484.333 976.667L483.667 976.333z"/>
<path style="fill:#8d8d8d; stroke:none;" d="M485 976L485 977L491 977L485 976M533 976L533 977L539 977L533 976z"/>
<path style="fill:#606060; stroke:none;" d="M539.667 976.333L540.333 976.667L539.667 976.333z"/>
</svg>
